<svg xmlns="http://www.w3.org/2000/svg" width="167" height="20" viewBox="0 0 167 20" fill="none">
  <path d="M76.7132 0.179199C79.4571 0.179199 81.8215 1.15698 83.7773 3.08377C85.7331 5.03933 86.6964 7.36874 86.6964 10.1008C86.6964 12.8328 85.7331 15.1622 83.7773 17.089C81.8215 19.0158 79.4571 19.9936 76.7132 19.9936C73.9692 19.9936 71.634 19.0158 69.6782 17.089C67.7224 15.1622 66.7591 12.8328 66.7591 10.1008C66.7591 7.33998 67.7224 5.01057 69.6782 3.08377C71.634 1.15698 73.9692 0.179199 76.7132 0.179199ZM80.9458 14.472C82.1134 13.2642 82.6973 11.7975 82.6973 10.1008C82.6973 8.37528 82.1134 6.90861 80.9458 5.70077C79.7782 4.49292 78.3478 3.889 76.7132 3.889C75.0785 3.889 73.6773 4.49292 72.5097 5.70077C71.3421 6.90861 70.7583 8.40404 70.7583 10.1008C70.7583 11.7975 71.3129 13.2354 72.5097 14.4433C73.6773 15.6511 75.0493 16.2838 76.7132 16.2838C78.3478 16.2838 79.7782 15.6799 80.9458 14.472ZM113.114 0.610572H117.055L110.954 19.5622H106.283L102.489 5.18312L98.6938 19.5622H94.1692L88.0975 0.610572H92.2426L96.4753 15.2772L100.328 0.610572H105.028L108.911 15.2772L113.114 0.610572ZM120.587 19.5622V1.61711L124.352 0.179199V19.5622H120.587ZM146.567 4.06155H139.823V19.5622H136.058V4.06155H127.884L129.344 0.610572H148.026L146.567 4.06155ZM150.974 16.0537L160.753 4.03279H150.42L151.879 0.581814H165.599V4.03279L155.791 16.0537H166.475L165.015 19.5334H150.974V16.0537ZM60.1912 9.84195C61.7675 9.20927 63.0811 7.88639 63.0811 5.87332C63.0811 4.32038 62.4681 3.05502 61.2713 2.07724C60.0453 1.09946 58.5274 0.581814 56.7175 0.581814H48.0771V19.5334H57.1554C59.1696 19.5334 60.7167 19.0158 61.8843 18.0093C63.0227 16.974 63.6065 15.7374 63.6065 14.2132C63.6065 11.9988 62.2054 10.4171 60.1912 9.84195ZM56.7759 16.2838H51.8427V3.889H56.3381C58.0019 3.889 59.1696 4.83802 59.1696 6.1609C59.1696 7.45502 57.9727 8.43279 56.3673 8.43279H54.4991L53.3022 11.4812H56.8051C58.4982 11.4812 59.695 12.4589 59.695 13.8393C59.6658 15.2772 58.4398 16.2838 56.7759 16.2838ZM4.64133 16.0825V0.553055H0.875732V19.5622H14.7997L16.1717 16.0825H4.64133ZM38.9988 19.5622V1.61711L42.7644 0.179199V19.5622H38.9988ZM20.1416 19.5622V0.783121H33.6277V4.20534H23.8488V8.37528H32.4601V11.8263H23.8488V16.1112H33.6277V19.5622H20.1416Z" fill="white" fill-opacity="0.9"/>
</svg>